<?xml version="1.0" encoding="UTF-8"?>
<svg width="68px" height="68px" viewBox="0 0 68 68" version="1.1" xmlns="http://www.w3.org/2000/svg" xmlns:xlink="http://www.w3.org/1999/xlink">
    <title>Group</title>
    <g id="Symbols" stroke="none" stroke-width="1" fill="none" fill-rule="evenodd">
        <g id="Group" transform="translate(2.000000, 2.000000)">
            <rect id="Combined-Shape" stroke="#FFFFFF" stroke-width="2" fill="#2B5DF5" x="-1" y="-1" width="66" height="66" rx="33"></rect>
            <path d="M18.5525,50 L18.5525,45.515 L23.0675,45.515 L23.0675,50 L25.3025,50 L25.3025,39.275 L23.0675,39.275 L23.0675,43.73 L18.5525,43.73 L18.5525,39.275 L16.2875,39.275 L16.2875,50 L18.5525,50 Z M30.9875,50.165 C32.0375,50.165 32.88,49.9425 33.515,49.4975 C34.15,49.0525 34.5325,48.405 34.6625,47.555 L34.6625,47.555 L32.7425,47.555 C32.6725,47.915 32.5025,48.195 32.2325,48.395 C31.9625,48.595 31.5675,48.695 31.0475,48.695 C30.4175,48.695 29.9275,48.5075 29.5775,48.1325 C29.2275,47.7575 29.0325,47.22 28.9925,46.52 L28.9925,46.52 L34.6925,46.52 L34.6925,45.965 C34.6925,45.265 34.59,44.6625 34.385,44.1575 C34.18,43.6525 33.9025,43.2375 33.5525,42.9125 C33.2025,42.5875 32.8,42.35 32.345,42.2 C31.89,42.05 31.4175,41.975 30.9275,41.975 C30.3575,41.975 29.83,42.0725 29.345,42.2675 C28.86,42.4625 28.44,42.7375 28.085,43.0925 C27.73,43.4475 27.4525,43.8775 27.2525,44.3825 C27.0525,44.8875 26.9525,45.445 26.9525,46.055 L26.9525,46.055 L26.9525,46.175 C26.9525,46.795 27.0525,47.3525 27.2525,47.8475 C27.4525,48.3425 27.7325,48.7625 28.0925,49.1075 C28.4525,49.4525 28.8775,49.715 29.3675,49.895 C29.8575,50.075 30.3975,50.165 30.9875,50.165 Z M32.7125,45.245 L29.0225,45.245 C29.1125,44.665 29.3225,44.2125 29.6525,43.8875 C29.9825,43.5625 30.4075,43.4 30.9275,43.4 C31.4675,43.4 31.89,43.55 32.195,43.85 C32.5,44.15 32.6725,44.615 32.7125,45.245 L32.7125,45.245 Z M38.2925,50 L38.2925,38.975 L36.2825,38.975 L36.2825,50 L38.2925,50 Z M42.3275,52.67 L42.3275,48.785 C42.5375,49.175 42.8575,49.5025 43.2875,49.7675 C43.7175,50.0325 44.2425,50.165 44.8625,50.165 C45.3625,50.165 45.8225,50.0725 46.2425,49.8875 C46.6625,49.7025 47.0275,49.4375 47.3375,49.0925 C47.6475,48.7475 47.8875,48.325 48.0575,47.825 C48.2275,47.325 48.3125,46.755 48.3125,46.115 L48.3125,46.115 L48.3125,45.995 C48.3125,45.355 48.225,44.785 48.05,44.285 C47.875,43.785 47.6325,43.3625 47.3225,43.0175 C47.0125,42.6725 46.6475,42.4125 46.2275,42.2375 C45.8075,42.0625 45.3575,41.975 44.8775,41.975 C44.2875,41.975 43.7725,42.1175 43.3325,42.4025 C42.8925,42.6875 42.5575,43.02 42.3275,43.4 L42.3275,43.4 L42.3275,42.155 L40.3175,42.155 L40.3175,52.67 L42.3275,52.67 Z M44.3075,48.59 C43.6875,48.59 43.1925,48.3875 42.8225,47.9825 C42.4525,47.5775 42.2675,46.96 42.2675,46.13 L42.2675,46.13 L42.2675,46.01 C42.2675,45.18 42.455,44.56 42.83,44.15 C43.205,43.74 43.6925,43.535 44.2925,43.535 C44.8625,43.535 45.3325,43.74 45.7025,44.15 C46.0725,44.56 46.2575,45.18 46.2575,46.01 L46.2575,46.01 L46.2575,46.13 C46.2575,46.93 46.09,47.54 45.755,47.96 C45.42,48.38 44.9375,48.59 44.3075,48.59 Z" id="Help" fill="#FFFFFF" fill-rule="nonzero"></path>
            <g transform="translate(18.000000, 8.000000)" fill="#FFFFFF" id="Iconography/Line/Chat">
                <path d="M26.379885,5.33355372 L26.379885,18.4410888 C26.379885,19.7687788 25.2998025,20.8481 23.9721125,20.8481 L21.09646,20.8481 C20.6240213,20.8481 20.2412088,20.4652875 20.2412088,19.9928488 C20.2412088,19.52041 20.6240213,19.1375975 21.09646,19.1375975 L23.9721125,19.1375975 C24.3564475,19.1375975 24.6693825,18.8246625 24.6693825,18.4410888 L24.6693825,5.33355372 C24.6693825,4.96896747 24.3723988,4.67274497 24.0085738,4.67274497 L4.02788747,4.67274497 C3.64355247,4.67274497 3.33100247,4.98529497 3.33100247,5.36962997 L3.33100247,18.4205788 C3.33100247,18.815545 3.65266997,19.1375888 4.04801247,19.1375888 L15.3968063,19.1375888 C15.579095,19.1375888 15.7568338,19.1953125 15.9034225,19.3031738 L21.6030763,23.49284 C21.9836138,23.7731113 22.065645,24.3085938 21.7861263,24.6891313 C21.6182663,24.9169988 21.3584963,25.0377663 21.0956988,25.0377663 C20.9194825,25.0377663 20.742505,24.98384 20.5898438,24.8721813 L15.116535,20.8480913 L4.04801247,20.8480913 C2.70892996,20.8480913 1.61973871,19.7596613 1.61973871,18.42057 L1.61973871,5.36962997 C1.61973871,4.04193997 2.70019746,2.96148122 4.02788747,2.96148122 L24.0085738,2.96148122 C25.316515,2.96148122 26.379885,4.02560372 26.379885,5.33355372 Z M10.1373125,11.0100375 C9.66487374,11.0100375 9.28168499,11.3932262 9.28168499,11.8656737 C9.28168499,12.3381125 9.66487374,12.7213012 10.1373125,12.7213012 L17.8630638,12.7213012 C18.3355025,12.7213012 18.718315,12.3381125 18.718315,11.8656737 C18.718315,11.393235 18.3355025,11.0100375 17.8630638,11.0100375 L10.1373125,11.0100375 Z" id="↳-Tint"></path>
            </g>
        </g>
    </g>
</svg>